<?xml version="1.0" standalone="no"?><!DOCTYPE svg PUBLIC "-//W3C//DTD SVG 1.1//EN" "http://www.w3.org/Graphics/SVG/1.1/DTD/svg11.dtd"><svg class="icon" width="200px" height="200.00px" viewBox="0 0 1024 1024" version="1.1" xmlns="http://www.w3.org/2000/svg"><path d="M0 0h1024v1024H0z" fill="#FFFFFF" fill-opacity="0" /><path d="M512 220m0-60a60 60 0 1 0 0 120 60 60 0 1 0 0-120Z" fill="#000000" /><path d="M512 512m0-60a60 60 0 1 0 0 120 60 60 0 1 0 0-120Z" fill="#000000" /><path d="M512 804m0-60a60 60 0 1 0 0 120 60 60 0 1 0 0-120Z" fill="#000000" /></svg>