<?xml version="1.0" standalone="no"?><!DOCTYPE svg PUBLIC "-//W3C//DTD SVG 1.1//EN" "http://www.w3.org/Graphics/SVG/1.1/DTD/svg11.dtd"><svg class="icon" width="200px" height="200.00px" viewBox="0 0 1024 1024" version="1.1" xmlns="http://www.w3.org/2000/svg"><path fill="#000000" d="M840.67 264C906.59 264 960 317.485 960 383.429V640.57C960 706.515 906.59 760 840.67 760H593.09v-96H840.67c12.87 0 23.33-10.474 23.33-23.429V383.43C864 370.474 853.54 360 840.67 360H593v-96h247.67zM432 264v96H183.48c-12.975 0-23.48 10.497-23.48 23.429V640.57C160 653.503 170.505 664 183.48 664h248.016v96H183.48C117.5 760 64 706.538 64 640.571V383.43C64 317.462 117.501 264 183.48 264H432z"  /><path fill="#000000" d="M332 464m8 0l344 0q8 0 8 8l0 80q0 8-8 8l-344 0q-8 0-8-8l0-80q0-8 8-8Z"  /></svg>