<?xml version="1.0" standalone="no"?><!DOCTYPE svg PUBLIC "-//W3C//DTD SVG 1.1//EN" "http://www.w3.org/Graphics/SVG/1.1/DTD/svg11.dtd"><svg class="icon" width="200px" height="200.00px" viewBox="0 0 1024 1024" version="1.1" xmlns="http://www.w3.org/2000/svg"><path fill="#000000" d="M170 216m-56 0a56 56 0 1 0 112 0 56 56 0 1 0-112 0Z"  /><path fill="#000000" d="M170 808m-56 0a56 56 0 1 0 112 0 56 56 0 1 0-112 0Z"  /><path fill="#000000" d="M170 512m-56 0a56 56 0 1 0 112 0 56 56 0 1 0-112 0Z"  /><path fill="#000000" d="M286 168m8 0l609 0q8 0 8 8l0 80q0 8-8 8l-609 0q-8 0-8-8l0-80q0-8 8-8Z"  /><path fill="#000000" d="M286 760m8 0l609 0q8 0 8 8l0 80q0 8-8 8l-609 0q-8 0-8-8l0-80q0-8 8-8Z"  /><path fill="#000000" d="M286 464m8 0l609 0q8 0 8 8l0 80q0 8-8 8l-609 0q-8 0-8-8l0-80q0-8 8-8Z"  /></svg>