<?xml version="1.0" standalone="no"?><!DOCTYPE svg PUBLIC "-//W3C//DTD SVG 1.1//EN" "http://www.w3.org/Graphics/SVG/1.1/DTD/svg11.dtd"><svg class="icon" width="200px" height="200.00px" viewBox="0 0 1024 1024" version="1.1" xmlns="http://www.w3.org/2000/svg"><path d="M0 0h1024v1024H0z" fill="#FFFFFF" fill-opacity="0" /><path d="M231.510608 231.010794c93.72559-93.72559 245.685665-93.72559 339.411255 0S664.647452 476.696459 570.921863 570.422049 325.236197 664.147639 231.510608 570.422049 137.785018 324.736384 231.510608 231.010794z m67.882251 67.882251c-56.235495 56.235495-56.235495 147.411258 0 203.646753s147.411258 56.235495 203.646753 0 56.235495-147.411258 0-203.646753S355.628354 242.65755 299.392859 298.893045z" fill="#000000" /><path d="M575.87161 643.254048l67.882251-67.882251 181.019336 181.019336a8 8 0 0 1 0 11.313708l-56.568542 56.568543a8 8 0 0 1-11.313709 0L575.87161 643.254048z" fill="#000000" /><path d="M532.03099 576.78601m5.656854-5.656854l33.941126-33.941126q5.656854-5.656854 11.313708 0l43.84062 43.840621q5.656854 5.656854 0 11.313708l-33.941125 33.941126q-5.656854 5.656854-11.313709 0l-43.84062-43.840621q-5.656854-5.656854 0-11.313708Z" fill="#000000" /><path d="M550.415766 549.915952l93.338095 25.455845-67.882251 67.882251z" fill="#000000" /></svg>