<?xml version="1.0" standalone="no"?><!DOCTYPE svg PUBLIC "-//W3C//DTD SVG 1.1//EN" "http://www.w3.org/Graphics/SVG/1.1/DTD/svg11.dtd"><svg class="icon" width="200px" height="200.00px" viewBox="0 0 1024 1024" version="1.1" xmlns="http://www.w3.org/2000/svg"><path d="M0 0h1024v1024H0z" fill="#FFFFFF" fill-opacity="0" /><path d="M464 112m8 0l80 0q8 0 8 8l0 784q0 8-8 8l-80 0q-8 0-8-8l0-784q0-8 8-8Z" fill="#000000" /><path d="M912 464m0 8l0 80q0 8-8 8l-784 0q-8 0-8-8l0-80q0-8 8-8l784 0q8 0 8 8Z" fill="#000000" /></svg>